<svg xmlns="http://www.w3.org/2000/svg" viewBox="0 0 300 300">
  <circle cx="150" cy="150" r="140" fill="#0064a4" />
  <path fill="#FFFFFF" d="M190,100c-10,0-20,5-25,15c-5-10-15-15-25-15c-10,0-20,5-25,15c-5-10-15-15-25-15c-10,0-20,5-25,15l25,25
    c5-10,15-15,25-15c10,0,20,5,25,15l25,25c5-10,15-15,25-15c10,0,20,5,25,15l25-25c-5-10-15-15-25-15z" />
  <path fill="#FFFFFF" d="M150,165l-25,45l-35-35c5,10,15,15,25,15c10,0,20-5,25-15l10-10z" />
  <path fill="#FFFFFF" d="M150,165l25,45l35-35c-5,10-15,15-25,15c-10,0-20-5-25-15l-10-10z" />
</svg> 